<svg width="1335" height="583" viewBox="0 0 1335 583" fill="none" xmlns="http://www.w3.org/2000/svg">
<path d="M410.15 299.44C417.522 295.205 420.016 290.61 423.128 286.666C442.478 262.119 461.799 237.544 481.092 212.939C483.475 209.913 485.789 206.638 488.807 204.366C492.861 201.34 497.319 198.477 502.042 196.822C510.528 193.847 518.8 199.514 519.443 208.516C519.742 212.781 519.324 217.067 518.209 221.195C513.185 239.327 508.171 257.476 502.445 275.393C493.993 301.884 484.924 328.177 476.163 354.573C475.738 356.18 475.415 357.812 475.194 359.459C479.086 360.994 479.798 357.556 481.195 356.03C505.351 328.803 529.267 301.361 553.448 274.159C577.358 247.297 601.4 220.538 625.573 193.882C669.667 145.573 719.274 103.574 773.372 67.0021C796.045 51.6651 819.378 37.2369 843.011 23.4174C855.869 15.8989 869.867 10.2578 883.556 4.25677C891.88 0.604694 900.88 -0.321066 909.975 0.0904353C927.814 0.887719 937.791 10.2663 938.846 27.9609C939.691 43.4252 937.054 58.8821 931.131 73.1917C921.702 96.5958 912.675 120.257 901.772 142.984C853.597 243.399 801.042 341.491 742.332 436.179C713.188 483.098 682.526 529.041 652.515 575.394C651.166 577.576 649.563 579.591 647.74 581.396C645.717 583.316 643.197 583.479 640.651 582.064C638.105 580.65 636.88 578.352 637.548 575.66C638.279 572.768 639.398 569.988 640.874 567.396C645.109 559.955 649.506 552.608 654.006 545.321C685.971 493.617 718.048 441.982 748.101 389.113C791.904 312.051 832.244 233.171 871.538 153.743C880.642 135.337 889.78 116.88 897.743 98.0191C903.863 83.4451 908.424 68.2366 913.173 53.1397C915.067 47.07 915.83 40.5889 916.507 34.2792C916.751 30.8692 916.383 27.443 915.418 24.1631C913.704 17.7848 909.204 14.8186 902.792 16.6618C894.565 18.8989 886.537 21.8124 878.79 25.372C847.4 40.3232 818.306 59.2008 789.761 78.9186C731.871 118.81 678.579 164.994 630.862 216.626C594.551 255.95 559.131 296.097 523.6 336.132C511.96 349.258 501.313 363.24 490.067 376.742C484.872 382.992 479.446 389.062 474.063 395.157C470.955 398.746 466.824 401.301 462.225 402.478C451.939 405.153 443.692 398.415 445.441 388.024C447.073 378.752 449.28 369.589 452.05 360.591C457.09 343.788 462.465 327.088 468.011 310.439C475.314 288.535 482.943 266.717 490.298 244.848C490.718 243.605 489.672 241.864 489.304 240.355C487.752 240.75 485.635 240.639 484.735 241.624C480.066 246.633 475.657 251.878 471.526 257.338C421.148 326.059 370.873 394.857 323.23 465.541C312.223 481.881 301.414 498.341 290.468 514.707C288.325 517.904 286.327 521.325 283.61 523.965C281.179 526.323 278.249 528.104 275.038 529.178C273.196 529.833 271.19 529.869 269.325 529.279C267.46 528.69 265.84 527.507 264.709 525.912C262.326 522.791 262.531 519.61 264.289 516.31C268.317 508.757 272.149 501.102 276.358 493.652C303.788 445.223 331.459 396.949 358.649 348.4C385.315 300.515 408.615 250.832 428.383 199.711C435.891 180.582 441.798 160.862 446.041 140.755C449.213 125.598 450.73 110.364 447.704 94.8641C443.658 74.109 432.223 60.1867 411.993 53.3969C394.849 47.653 377.439 48.0559 359.927 50.2848C323.444 54.9399 289.353 67.6022 256.205 82.6734C198.661 108.829 144.898 141.278 96.2772 181.871C76.8274 198.099 58.6118 215.563 44.8452 237.132C36.0675 250.892 28.3269 265.2 22.558 280.46C19.8578 287.609 18.4348 295.248 16.5576 302.698C16.0347 304.756 16.0947 306.984 15.4518 308.999C14.1146 313.105 8.06273 315 4.8568 311.982C2.69504 310.006 1.17021 307.43 0.476461 304.584C-0.620756 298.66 0.305048 292.753 1.95087 286.855C8.05334 264.933 18.4045 244.423 32.4158 226.493C47.7708 206.937 65.3149 189.204 84.705 173.641C153.975 117.445 230.789 75.3951 316.741 50.6364C337.328 44.737 358.498 41.1061 379.874 39.8087C394.506 38.8914 409.018 39.8773 423.119 43.9238C451.981 52.1795 468.388 72.3773 470.685 102.391C472.28 123.129 469.451 143.37 463.759 163.311C453.747 198.391 440.058 232.057 424.92 265.174C421.002 273.747 416.956 282.243 413.064 290.816C412.122 292.539 411.702 294.519 410.15 299.44Z" fill="white"/>
<path d="M1089.36 354.867C1075.9 361.647 1064.36 367.477 1052.83 373.237C1046.95 376.167 1044.44 381.547 1042.42 387.237C1036.92 402.767 1031.67 418.377 1025.97 433.827C1020.44 448.827 1014.76 463.747 1008.61 478.477C1002.81 492.377 994.606 504.857 984.966 516.477C970.156 534.317 950.966 544.167 928.486 547.377C895.016 552.157 862.736 547.097 832.016 533.107C825.694 530.152 819.865 526.239 814.736 521.507C805.866 513.397 804.446 502.977 811.396 493.157C816.563 485.817 822.752 479.254 829.776 473.667C840.822 465.103 852.34 457.167 864.276 449.897C896.616 429.897 931.016 413.897 965.526 398.097C981.406 390.837 997.476 383.967 1013.35 376.677C1017.43 374.878 1021.25 372.522 1024.69 369.677C1027.29 367.447 1028.69 364.017 1025.61 359.677C1022.52 361.507 1019.68 363.377 1016.67 364.917C1012.25 367.187 1007.88 369.807 1003.18 371.227C988.416 375.697 974.536 375.787 964.936 360.607C960.416 363.697 956.366 366.607 952.176 369.287C943.272 374.946 932.957 377.989 922.406 378.067C912.406 378.277 904.966 374.447 901.776 364.327C901.186 362.437 900.536 360.557 899.646 357.887C893.136 359.817 889.046 364.957 884.216 368.717C874.866 376.017 864.606 380.717 852.706 381.057C848.226 381.261 843.737 380.925 839.336 380.057C830.706 378.217 826.646 372.217 827.996 363.597C828.635 360.173 829.703 356.843 831.176 353.687C836.03 342.686 842.964 332.727 851.596 324.357C863.11 313.219 876.45 304.14 891.036 297.517C898.269 294.002 906.332 292.552 914.336 293.327C922.696 294.177 928.166 299.327 928.836 307.717C928.795 310.133 927.841 312.445 926.166 314.187C925.168 315.34 923.796 316.107 922.289 316.352C920.783 316.597 919.239 316.305 917.926 315.527C914.506 313.527 911.286 311.207 907.866 308.947C892.306 312.367 880.926 321.947 870.506 332.827C859.936 343.827 855.006 352.957 853.306 363.187C855.416 365.367 857.966 365.007 860.106 363.677C865.586 360.267 871.186 356.917 876.176 352.847C884.696 345.917 892.806 338.477 901.026 331.187C905.306 327.397 910.106 325.117 915.926 325.187C921.746 325.257 925.206 328.937 924.416 334.857C924.086 337.317 923.206 339.687 922.676 342.117C921.926 345.527 921.066 348.937 920.606 352.387C919.126 363.387 924.106 367.647 934.606 363.297C950.706 356.607 963.826 346.357 969.746 328.937C973.063 318.95 978.309 309.712 985.186 301.747C987.514 299.242 990.444 297.373 993.696 296.317C994.859 296.03 996.073 296.016 997.242 296.276C998.412 296.536 999.505 297.064 1000.44 297.817C1001.74 299.137 1002.11 302.547 1001.37 304.457C998.856 310.957 995.746 317.237 992.746 323.547C988.501 332.09 986.44 341.552 986.746 351.087C986.846 353.477 987.746 355.837 988.516 359.187C992.226 358.737 996.016 359.237 998.706 357.757C1004.4 354.677 1009.75 350.982 1014.64 346.737C1026.97 335.744 1037.56 322.929 1046.03 308.737C1048.35 304.887 1050.77 301.097 1053.44 297.497C1056.11 293.897 1059.76 292.837 1064.03 293.147C1069.14 293.517 1072.31 297.067 1071.59 302.207C1071.08 305.151 1070.32 308.046 1069.31 310.857C1066.03 320.807 1062.56 330.707 1059.31 340.677C1058.12 344.347 1057.4 348.167 1056.65 351.187C1059.72 355.517 1063.08 354.187 1065.36 352.817C1075.66 346.747 1085.88 340.487 1095.72 333.707C1098.33 331.907 1099.72 328.117 1101.26 325.037C1105.53 316.567 1109.54 307.977 1113.73 299.467C1115.57 295.727 1118.84 295.047 1122.6 295.727C1127.01 296.507 1130.24 299.807 1129.67 303.907C1129.07 307.842 1128.03 311.697 1126.56 315.397C1121.2 329.397 1115.56 343.257 1110.14 357.217C1107.38 364.297 1107.47 364.327 1108.14 373.907C1110.94 373.357 1114.14 373.607 1116.2 372.157C1122.67 367.527 1129.27 362.827 1134.79 357.157C1148.36 343.157 1161.35 328.667 1174.6 314.387C1177.65 311.097 1180.39 307.317 1183.99 304.787C1187.23 302.573 1190.97 301.199 1194.88 300.787C1200.68 300.257 1204.36 304.787 1203.03 310.477C1201.46 317.267 1199.16 323.897 1197.12 330.567C1194.79 338.207 1192.29 345.797 1190.12 353.467C1189.49 355.849 1189.19 358.304 1189.21 360.767C1189.25 361.388 1189.43 361.993 1189.73 362.542C1190.02 363.091 1190.43 363.573 1190.92 363.956C1191.41 364.34 1191.97 364.617 1192.58 364.771C1193.18 364.924 1193.81 364.95 1194.43 364.847C1197.3 364.087 1200.34 363.367 1202.79 361.847C1215.47 353.847 1228.13 345.847 1240.45 337.397C1243.55 335.267 1245.74 331.497 1247.72 328.107C1252.26 320.357 1256.35 312.347 1260.72 304.517C1262.36 301.43 1264.29 298.501 1266.47 295.767C1271.07 290.267 1276.89 290.857 1281.13 297.097C1282.51 299.097 1283.59 301.357 1285.29 304.337C1290.12 303.087 1294.76 301.587 1299.53 300.707C1307.34 299.277 1315.22 297.317 1323.07 297.317C1331.68 297.317 1335.53 302.767 1334.65 311.317C1333.91 318.567 1331.49 325.127 1324.39 328.437C1322.13 329.297 1319.64 329.297 1317.39 328.437C1316.26 327.997 1315.62 325.097 1315.59 323.297C1315.66 320.089 1315.91 316.888 1316.33 313.707C1312.12 309.707 1308.24 310.947 1304.51 312.457C1293.26 317.027 1283 323.267 1275.06 332.527C1266.61 342.367 1258.7 352.657 1250.68 362.857C1246.98 367.557 1243.83 372.717 1239.96 377.277C1235.52 382.497 1232.71 382.577 1223.9 378.857V369.017C1222.57 368.847 1221.44 368.327 1220.78 368.677C1216.84 370.817 1213.17 373.527 1209.09 375.347C1203.7 377.933 1198.09 380.002 1192.32 381.527C1180.83 384.237 1171.74 378.957 1167.51 367.767C1166.13 364.097 1165.12 360.297 1163.51 355.147C1158.51 359.397 1154.35 362.907 1150.19 366.377C1143.29 372.137 1136.55 378.117 1129.39 383.537C1121.19 389.747 1111.85 392.967 1101.39 392.097C1092.87 391.397 1087.61 386.467 1086.73 377.947C1086.44 374.464 1086.53 370.962 1086.98 367.497C1087.32 364.077 1088.21 360.737 1089.36 354.867ZM903.216 536.567C906.216 536.567 909.216 536.637 912.216 536.567C934.536 535.977 952.586 526.937 966.636 509.567C976.501 497.602 984.412 484.153 990.076 469.717C998.626 447.367 1006.49 424.717 1014.62 402.227C1015.12 400.815 1015.51 399.368 1015.79 397.897C1016.48 394.477 1013.86 391.707 1010.72 392.597C1008.81 393.149 1006.95 393.848 1005.15 394.687C960.196 415.187 915.696 436.597 872.766 461.127C859.654 468.412 847.531 477.352 836.696 487.727C822.146 501.977 823.696 512.047 841.426 521.407C860.736 531.537 881.296 536.917 903.216 536.567Z" fill="white"/>
</svg>
